<mxfile host="app.diagrams.net" modified="2023-12-19T13:49:59.100Z" agent="Mozilla/5.0 (Windows NT 10.0; Win64; x64) AppleWebKit/537.36 (KHTML, like Gecko) Chrome/120.0.0.0 Safari/537.36" etag="lRmWMlt-LHA0AgGqK5xJ" version="22.1.11" type="github">
  <diagram name="Page-1" id="aUv6DGZyM9SFt3tcHmQP">
    <mxGraphModel dx="1323" dy="1787" grid="1" gridSize="10" guides="1" tooltips="1" connect="1" arrows="1" fold="1" page="1" pageScale="1" pageWidth="850" pageHeight="1100" math="0" shadow="0">
      <root>
        <mxCell id="0" />
        <mxCell id="1" parent="0" />
        <mxCell id="4IaCxX9oTdvTSS_-SwQ0-1" value="" style="ellipse;whiteSpace=wrap;html=1;aspect=fixed;" vertex="1" parent="1">
          <mxGeometry x="130" y="210" width="80" height="80" as="geometry" />
        </mxCell>
        <mxCell id="4IaCxX9oTdvTSS_-SwQ0-2" value="Entrance" style="text;strokeColor=none;align=center;fillColor=none;html=1;verticalAlign=middle;whiteSpace=wrap;rounded=0;" vertex="1" parent="1">
          <mxGeometry x="140" y="235" width="60" height="30" as="geometry" />
        </mxCell>
        <mxCell id="4IaCxX9oTdvTSS_-SwQ0-3" value="" style="ellipse;whiteSpace=wrap;html=1;aspect=fixed;" vertex="1" parent="1">
          <mxGeometry x="260" y="425" width="80" height="80" as="geometry" />
        </mxCell>
        <mxCell id="4IaCxX9oTdvTSS_-SwQ0-4" value="Bakery" style="text;strokeColor=none;align=center;fillColor=none;html=1;verticalAlign=middle;whiteSpace=wrap;rounded=0;" vertex="1" parent="1">
          <mxGeometry x="270" y="450" width="60" height="30" as="geometry" />
        </mxCell>
        <mxCell id="4IaCxX9oTdvTSS_-SwQ0-5" value="" style="ellipse;whiteSpace=wrap;html=1;aspect=fixed;" vertex="1" parent="1">
          <mxGeometry x="490" y="-20" width="80" height="80" as="geometry" />
        </mxCell>
        <mxCell id="4IaCxX9oTdvTSS_-SwQ0-6" value="Snacks" style="text;strokeColor=none;align=center;fillColor=none;html=1;verticalAlign=middle;whiteSpace=wrap;rounded=0;" vertex="1" parent="1">
          <mxGeometry x="500" y="5" width="60" height="30" as="geometry" />
        </mxCell>
        <mxCell id="4IaCxX9oTdvTSS_-SwQ0-7" value="" style="ellipse;whiteSpace=wrap;html=1;aspect=fixed;" vertex="1" parent="1">
          <mxGeometry x="490" y="130" width="80" height="80" as="geometry" />
        </mxCell>
        <mxCell id="4IaCxX9oTdvTSS_-SwQ0-8" value="Canned Goods" style="text;strokeColor=none;align=center;fillColor=none;html=1;verticalAlign=middle;whiteSpace=wrap;rounded=0;" vertex="1" parent="1">
          <mxGeometry x="500" y="155" width="60" height="30" as="geometry" />
        </mxCell>
        <mxCell id="4IaCxX9oTdvTSS_-SwQ0-9" value="" style="ellipse;whiteSpace=wrap;html=1;aspect=fixed;" vertex="1" parent="1">
          <mxGeometry x="490" y="280" width="80" height="80" as="geometry" />
        </mxCell>
        <mxCell id="4IaCxX9oTdvTSS_-SwQ0-10" value="Frozen Foods" style="text;strokeColor=none;align=center;fillColor=none;html=1;verticalAlign=middle;whiteSpace=wrap;rounded=0;" vertex="1" parent="1">
          <mxGeometry x="500" y="305" width="60" height="30" as="geometry" />
        </mxCell>
        <mxCell id="4IaCxX9oTdvTSS_-SwQ0-11" value="" style="ellipse;whiteSpace=wrap;html=1;aspect=fixed;" vertex="1" parent="1">
          <mxGeometry x="490" y="440" width="80" height="80" as="geometry" />
        </mxCell>
        <mxCell id="4IaCxX9oTdvTSS_-SwQ0-12" value="Beverages" style="text;strokeColor=none;align=center;fillColor=none;html=1;verticalAlign=middle;whiteSpace=wrap;rounded=0;" vertex="1" parent="1">
          <mxGeometry x="500" y="465" width="60" height="30" as="geometry" />
        </mxCell>
        <mxCell id="4IaCxX9oTdvTSS_-SwQ0-13" value="" style="ellipse;whiteSpace=wrap;html=1;aspect=fixed;" vertex="1" parent="1">
          <mxGeometry x="870" y="240" width="80" height="80" as="geometry" />
        </mxCell>
        <mxCell id="4IaCxX9oTdvTSS_-SwQ0-14" value="Produce" style="text;strokeColor=none;align=center;fillColor=none;html=1;verticalAlign=middle;whiteSpace=wrap;rounded=0;" vertex="1" parent="1">
          <mxGeometry x="880" y="265" width="60" height="30" as="geometry" />
        </mxCell>
        <mxCell id="4IaCxX9oTdvTSS_-SwQ0-16" value="" style="endArrow=none;html=1;rounded=0;exitX=0.712;exitY=0.977;exitDx=0;exitDy=0;exitPerimeter=0;entryX=0;entryY=0;entryDx=0;entryDy=0;" edge="1" parent="1" source="4IaCxX9oTdvTSS_-SwQ0-1" target="4IaCxX9oTdvTSS_-SwQ0-3">
          <mxGeometry width="50" height="50" relative="1" as="geometry">
            <mxPoint x="100" y="360" as="sourcePoint" />
            <mxPoint x="150" y="310" as="targetPoint" />
          </mxGeometry>
        </mxCell>
        <mxCell id="4IaCxX9oTdvTSS_-SwQ0-17" value="" style="endArrow=none;html=1;rounded=0;exitX=0.5;exitY=0;exitDx=0;exitDy=0;entryX=0;entryY=0.5;entryDx=0;entryDy=0;" edge="1" parent="1" source="4IaCxX9oTdvTSS_-SwQ0-1" target="4IaCxX9oTdvTSS_-SwQ0-5">
          <mxGeometry width="50" height="50" relative="1" as="geometry">
            <mxPoint x="260" y="240" as="sourcePoint" />
            <mxPoint x="310" y="190" as="targetPoint" />
          </mxGeometry>
        </mxCell>
        <mxCell id="4IaCxX9oTdvTSS_-SwQ0-18" value="" style="endArrow=none;html=1;rounded=0;exitX=1;exitY=0;exitDx=0;exitDy=0;entryX=0;entryY=0.5;entryDx=0;entryDy=0;" edge="1" parent="1" source="4IaCxX9oTdvTSS_-SwQ0-1" target="4IaCxX9oTdvTSS_-SwQ0-7">
          <mxGeometry width="50" height="50" relative="1" as="geometry">
            <mxPoint x="410" y="270" as="sourcePoint" />
            <mxPoint x="460" y="220" as="targetPoint" />
          </mxGeometry>
        </mxCell>
        <mxCell id="4IaCxX9oTdvTSS_-SwQ0-19" value="" style="endArrow=none;html=1;rounded=0;exitX=1;exitY=0.5;exitDx=0;exitDy=0;entryX=-0.014;entryY=0.292;entryDx=0;entryDy=0;entryPerimeter=0;" edge="1" parent="1" source="4IaCxX9oTdvTSS_-SwQ0-1" target="4IaCxX9oTdvTSS_-SwQ0-9">
          <mxGeometry width="50" height="50" relative="1" as="geometry">
            <mxPoint x="310" y="300" as="sourcePoint" />
            <mxPoint x="360" y="250" as="targetPoint" />
          </mxGeometry>
        </mxCell>
        <mxCell id="4IaCxX9oTdvTSS_-SwQ0-20" value="" style="endArrow=none;html=1;rounded=0;exitX=1.006;exitY=0.669;exitDx=0;exitDy=0;entryX=0;entryY=0.5;entryDx=0;entryDy=0;exitPerimeter=0;" edge="1" parent="1" source="4IaCxX9oTdvTSS_-SwQ0-3" target="4IaCxX9oTdvTSS_-SwQ0-11">
          <mxGeometry width="50" height="50" relative="1" as="geometry">
            <mxPoint x="360" y="450" as="sourcePoint" />
            <mxPoint x="410" y="400" as="targetPoint" />
          </mxGeometry>
        </mxCell>
        <mxCell id="4IaCxX9oTdvTSS_-SwQ0-21" value="" style="endArrow=none;html=1;rounded=0;entryX=0.5;entryY=1;entryDx=0;entryDy=0;exitX=0.5;exitY=0;exitDx=0;exitDy=0;" edge="1" parent="1" source="4IaCxX9oTdvTSS_-SwQ0-11" target="4IaCxX9oTdvTSS_-SwQ0-9">
          <mxGeometry width="50" height="50" relative="1" as="geometry">
            <mxPoint x="370" y="440" as="sourcePoint" />
            <mxPoint x="420" y="390" as="targetPoint" />
          </mxGeometry>
        </mxCell>
        <mxCell id="4IaCxX9oTdvTSS_-SwQ0-22" value="" style="endArrow=none;html=1;rounded=0;entryX=0.5;entryY=1;entryDx=0;entryDy=0;" edge="1" parent="1" source="4IaCxX9oTdvTSS_-SwQ0-9" target="4IaCxX9oTdvTSS_-SwQ0-7">
          <mxGeometry width="50" height="50" relative="1" as="geometry">
            <mxPoint x="380" y="410" as="sourcePoint" />
            <mxPoint x="430" y="360" as="targetPoint" />
          </mxGeometry>
        </mxCell>
        <mxCell id="4IaCxX9oTdvTSS_-SwQ0-23" value="" style="endArrow=none;html=1;rounded=0;entryX=0.5;entryY=0;entryDx=0;entryDy=0;exitX=0.5;exitY=1;exitDx=0;exitDy=0;" edge="1" parent="1" source="4IaCxX9oTdvTSS_-SwQ0-5" target="4IaCxX9oTdvTSS_-SwQ0-7">
          <mxGeometry width="50" height="50" relative="1" as="geometry">
            <mxPoint x="390" y="370" as="sourcePoint" />
            <mxPoint x="440" y="320" as="targetPoint" />
          </mxGeometry>
        </mxCell>
        <mxCell id="4IaCxX9oTdvTSS_-SwQ0-24" value="" style="endArrow=none;html=1;rounded=0;entryX=0;entryY=1;entryDx=0;entryDy=0;exitX=1;exitY=0.5;exitDx=0;exitDy=0;" edge="1" parent="1" source="4IaCxX9oTdvTSS_-SwQ0-11" target="4IaCxX9oTdvTSS_-SwQ0-13">
          <mxGeometry width="50" height="50" relative="1" as="geometry">
            <mxPoint x="410" y="410" as="sourcePoint" />
            <mxPoint x="460" y="360" as="targetPoint" />
          </mxGeometry>
        </mxCell>
        <mxCell id="4IaCxX9oTdvTSS_-SwQ0-25" value="" style="endArrow=none;html=1;rounded=0;entryX=0;entryY=0.5;entryDx=0;entryDy=0;exitX=0.996;exitY=0.393;exitDx=0;exitDy=0;exitPerimeter=0;" edge="1" parent="1" source="4IaCxX9oTdvTSS_-SwQ0-9" target="4IaCxX9oTdvTSS_-SwQ0-13">
          <mxGeometry width="50" height="50" relative="1" as="geometry">
            <mxPoint x="580" y="310" as="sourcePoint" />
            <mxPoint x="700" y="300" as="targetPoint" />
          </mxGeometry>
        </mxCell>
        <mxCell id="4IaCxX9oTdvTSS_-SwQ0-26" value="" style="endArrow=none;html=1;rounded=0;exitX=1;exitY=0.5;exitDx=0;exitDy=0;entryX=0.244;entryY=0.089;entryDx=0;entryDy=0;entryPerimeter=0;" edge="1" parent="1" source="4IaCxX9oTdvTSS_-SwQ0-7" target="4IaCxX9oTdvTSS_-SwQ0-13">
          <mxGeometry width="50" height="50" relative="1" as="geometry">
            <mxPoint x="630" y="195" as="sourcePoint" />
            <mxPoint x="680" y="145" as="targetPoint" />
          </mxGeometry>
        </mxCell>
        <mxCell id="4IaCxX9oTdvTSS_-SwQ0-27" value="" style="endArrow=none;html=1;rounded=0;exitX=1.01;exitY=0.649;exitDx=0;exitDy=0;exitPerimeter=0;entryX=0.5;entryY=0;entryDx=0;entryDy=0;" edge="1" parent="1" source="4IaCxX9oTdvTSS_-SwQ0-5" target="4IaCxX9oTdvTSS_-SwQ0-13">
          <mxGeometry width="50" height="50" relative="1" as="geometry">
            <mxPoint x="680" y="110" as="sourcePoint" />
            <mxPoint x="730" y="60" as="targetPoint" />
          </mxGeometry>
        </mxCell>
        <mxCell id="4IaCxX9oTdvTSS_-SwQ0-29" value="&lt;font style=&quot;font-size: 19px;&quot;&gt;5&lt;/font&gt;" style="text;strokeColor=none;align=center;fillColor=none;html=1;verticalAlign=middle;whiteSpace=wrap;rounded=0;" vertex="1" parent="1">
          <mxGeometry x="360" y="155" width="60" height="30" as="geometry" />
        </mxCell>
        <mxCell id="4IaCxX9oTdvTSS_-SwQ0-30" value="&lt;span style=&quot;font-size: 19px;&quot;&gt;6&lt;/span&gt;" style="text;strokeColor=none;align=center;fillColor=none;html=1;verticalAlign=middle;whiteSpace=wrap;rounded=0;" vertex="1" parent="1">
          <mxGeometry x="290" y="80" width="60" height="30" as="geometry" />
        </mxCell>
        <mxCell id="4IaCxX9oTdvTSS_-SwQ0-31" value="&lt;span style=&quot;font-size: 19px;&quot;&gt;6&lt;/span&gt;" style="text;strokeColor=none;align=center;fillColor=none;html=1;verticalAlign=middle;whiteSpace=wrap;rounded=0;" vertex="1" parent="1">
          <mxGeometry x="720" y="80" width="60" height="30" as="geometry" />
        </mxCell>
        <mxCell id="4IaCxX9oTdvTSS_-SwQ0-32" value="&lt;span style=&quot;font-size: 19px;&quot;&gt;3&lt;/span&gt;" style="text;strokeColor=none;align=center;fillColor=none;html=1;verticalAlign=middle;whiteSpace=wrap;rounded=0;" vertex="1" parent="1">
          <mxGeometry x="660" y="160" width="60" height="30" as="geometry" />
        </mxCell>
        <mxCell id="4IaCxX9oTdvTSS_-SwQ0-33" value="&lt;span style=&quot;font-size: 19px;&quot;&gt;5&lt;/span&gt;" style="text;strokeColor=none;align=center;fillColor=none;html=1;verticalAlign=middle;whiteSpace=wrap;rounded=0;" vertex="1" parent="1">
          <mxGeometry x="630" y="265" width="60" height="30" as="geometry" />
        </mxCell>
        <mxCell id="4IaCxX9oTdvTSS_-SwQ0-34" value="&lt;span style=&quot;font-size: 19px;&quot;&gt;4&lt;/span&gt;" style="text;strokeColor=none;align=center;fillColor=none;html=1;verticalAlign=middle;whiteSpace=wrap;rounded=0;" vertex="1" parent="1">
          <mxGeometry x="650" y="390" width="60" height="30" as="geometry" />
        </mxCell>
        <mxCell id="4IaCxX9oTdvTSS_-SwQ0-35" value="&lt;span style=&quot;font-size: 19px;&quot;&gt;2&lt;/span&gt;" style="text;strokeColor=none;align=center;fillColor=none;html=1;verticalAlign=middle;whiteSpace=wrap;rounded=0;" vertex="1" parent="1">
          <mxGeometry x="380" y="450" width="60" height="30" as="geometry" />
        </mxCell>
        <mxCell id="4IaCxX9oTdvTSS_-SwQ0-36" value="&lt;span style=&quot;font-size: 19px;&quot;&gt;3&lt;/span&gt;" style="text;strokeColor=none;align=center;fillColor=none;html=1;verticalAlign=middle;whiteSpace=wrap;rounded=0;" vertex="1" parent="1">
          <mxGeometry x="220" y="350" width="60" height="30" as="geometry" />
        </mxCell>
        <mxCell id="4IaCxX9oTdvTSS_-SwQ0-37" value="&lt;span style=&quot;font-size: 19px;&quot;&gt;4&lt;/span&gt;" style="text;strokeColor=none;align=center;fillColor=none;html=1;verticalAlign=middle;whiteSpace=wrap;rounded=0;" vertex="1" parent="1">
          <mxGeometry x="350" y="250" width="60" height="30" as="geometry" />
        </mxCell>
        <mxCell id="4IaCxX9oTdvTSS_-SwQ0-38" value="" style="endArrow=none;html=1;rounded=0;exitX=1;exitY=0;exitDx=0;exitDy=0;entryX=0;entryY=1;entryDx=0;entryDy=0;" edge="1" parent="1" source="4IaCxX9oTdvTSS_-SwQ0-3" target="4IaCxX9oTdvTSS_-SwQ0-9">
          <mxGeometry width="50" height="50" relative="1" as="geometry">
            <mxPoint x="380" y="410" as="sourcePoint" />
            <mxPoint x="430" y="360" as="targetPoint" />
          </mxGeometry>
        </mxCell>
        <mxCell id="4IaCxX9oTdvTSS_-SwQ0-39" value="&lt;span style=&quot;font-size: 19px;&quot;&gt;2&lt;/span&gt;" style="text;strokeColor=none;align=center;fillColor=none;html=1;verticalAlign=middle;whiteSpace=wrap;rounded=0;" vertex="1" parent="1">
          <mxGeometry x="360" y="370" width="60" height="30" as="geometry" />
        </mxCell>
        <mxCell id="4IaCxX9oTdvTSS_-SwQ0-40" value="&lt;span style=&quot;font-size: 19px;&quot;&gt;1&lt;/span&gt;" style="text;strokeColor=none;align=center;fillColor=none;html=1;verticalAlign=middle;whiteSpace=wrap;rounded=0;" vertex="1" parent="1">
          <mxGeometry x="520" y="80" width="60" height="30" as="geometry" />
        </mxCell>
        <mxCell id="4IaCxX9oTdvTSS_-SwQ0-41" value="&lt;span style=&quot;font-size: 19px;&quot;&gt;1&lt;/span&gt;" style="text;strokeColor=none;align=center;fillColor=none;html=1;verticalAlign=middle;whiteSpace=wrap;rounded=0;" vertex="1" parent="1">
          <mxGeometry x="520" y="230" width="60" height="30" as="geometry" />
        </mxCell>
        <mxCell id="4IaCxX9oTdvTSS_-SwQ0-42" value="&lt;span style=&quot;font-size: 19px;&quot;&gt;1&lt;/span&gt;" style="text;strokeColor=none;align=center;fillColor=none;html=1;verticalAlign=middle;whiteSpace=wrap;rounded=0;" vertex="1" parent="1">
          <mxGeometry x="520" y="390" width="60" height="30" as="geometry" />
        </mxCell>
      </root>
    </mxGraphModel>
  </diagram>
</mxfile>
